<svg width="361" height="201" viewBox="0 0 361 201" fill="none" xmlns="http://www.w3.org/2000/svg">
<g clip-path="url(#clip0_67_3665)">
<path d="M-43.6804 -88.835C-44.4092 -95.4222 -39.66 -101.353 -33.0728 -102.082L315.798 -140.68C322.386 -141.409 328.317 -136.66 329.045 -130.073L361.009 158.829L-11.7168 200.067L-43.6804 -88.835Z" fill="white"/>
<rect x="70.6816" y="8.17725" width="20.299" height="3.75" transform="rotate(115.687 70.6816 8.17725)" fill="#FFED36" fill-opacity="0.75"/>
<rect x="305.702" y="195.469" width="30.299" height="7.75" transform="rotate(74.6866 305.702 195.469)" fill="#BA3E03" fill-opacity="0.85"/>
<rect x="131.954" y="43.6545" width="5.299" height="4.75" transform="rotate(10.6866 131.954 43.6545)" fill="#FFED36" fill-opacity="0.9"/>
<rect x="343.946" y="122.823" width="6.299" height="5.75" transform="rotate(-99.3134 343.946 122.823)" fill="#480CA7" fill-opacity="0.65"/>
<circle cx="218.655" cy="0.752678" r="2.8925" transform="rotate(-6.31343 218.655 0.752678)" fill="#FF21FB"/>
<circle cx="65.443" cy="93.6643" r="5.3925" transform="rotate(-6.31343 65.443 93.6643)" fill="#480CA7" fill-opacity="0.6"/>
<circle cx="156.781" cy="68.9705" r="2.8925" transform="rotate(-6.31343 156.781 68.9705)" fill="#03A3F5" fill-opacity="0.65"/>
<circle cx="95.3522" cy="132.108" r="2.8925" transform="rotate(-6.31343 95.3522 132.108)" fill="#FC9E1C"/>
<circle cx="210.096" cy="118.91" r="5.3925" transform="rotate(-6.31343 210.096 118.91)" fill="#9AF5FC" fill-opacity="0.85"/>
<circle cx="45.135" cy="69.2496" r="1.8925" transform="rotate(-6.31343 45.135 69.2496)" fill="#F62584" fill-opacity="0.6"/>
<circle cx="129.928" cy="108.161" r="4.8925" transform="rotate(-6.31343 129.928 108.161)" fill="#F54721" fill-opacity="0.35"/>
<path d="M138.031 27.7071L133.259 26.0932L133.32 21.0562L138.129 19.5571L141.041 23.6676L138.031 27.7071Z" fill="#4BC8EF" fill-opacity="0.85"/>
<path d="M253.123 41.0374L248.401 38.6639L248.096 33.3877L252.512 30.4851L257.234 32.8586L257.54 38.1348L253.123 41.0374Z" fill="#C9FCBE" fill-opacity="0.65"/>
<path d="M252.353 102.922L258.395 99.8018L263.23 104.584L260.176 110.66L253.454 109.633L252.353 102.922Z" fill="#F62584" fill-opacity="0.45"/>
<path d="M316.533 20.3137L307.859 24.4164L303.756 15.7423L312.43 11.6396L316.533 20.3137Z" fill="#755FFE"/>
<path d="M260.184 -14.6221L257.232 -9.78166L258.985 -4.38963L254.144 -7.34197L248.752 -5.58924L251.705 -10.4297L249.952 -15.8217L254.792 -12.8694L260.184 -14.6221Z" fill="#DCBCFA" fill-opacity="0.75"/>
<path d="M319.216 12.0183L316.891 16.3219L318.644 20.8883L314.341 18.5632L309.774 20.3168L312.099 16.0132L310.346 11.4468L314.649 13.7719L319.216 12.0183Z" fill="#FF21FB" fill-opacity="0.75"/>
<path d="M273.788 208.712L276.132 204.613L272.111 202.137L276.833 202.118L276.966 197.398L279.344 201.477L283.498 199.232L281.154 203.331L285.176 205.806L280.454 205.826L280.321 210.546L277.943 206.467L273.788 208.712Z" fill="#755FFE"/>
<path d="M31.9935 110.621L33.8153 106.834L30.7759 103.931L34.9412 104.493L36.763 100.705L37.5155 104.84L41.6808 105.402L37.9805 107.396L38.733 111.531L35.6937 108.628L31.9935 110.621Z" fill="#FC9E1C" fill-opacity="0.35"/>
<path d="M218.424 15.7913L218.551 10.5122L214.626 6.97932L219.905 7.10654L223.438 3.18182L223.311 8.46091L227.236 11.9938L221.957 11.8666L218.424 15.7913Z" fill="#03A3F5" fill-opacity="0.75"/>
<path d="M72.7013 53.5081L72.1705 56.4056L74.0246 58.6947L71.1271 58.1639L68.838 60.018L69.3688 57.1205L67.5146 54.8314L70.4122 55.3622L72.7013 53.5081Z" fill="#C9FCBE"/>
</g>
<defs>
<clipPath id="clip0_67_3665">
<path d="M-43.6804 -88.835C-44.4092 -95.4222 -39.66 -101.353 -33.0728 -102.082L315.798 -140.68C322.386 -141.409 328.317 -136.66 329.045 -130.073L361.009 158.829L-11.7168 200.067L-43.6804 -88.835Z" fill="white"/>
</clipPath>
</defs>
</svg>
