<svg width="101" height="33" viewBox="0 0 101 33" fill="none" xmlns="http://www.w3.org/2000/svg">
<path d="M-2.02099e-07 24.846C-2.02099e-07 24.038 0.202 22.9158 0.606 21.4793C1.03244 20.0429 1.58233 18.4718 2.25567 16.766C2.929 15.0602 3.69211 13.2983 4.545 11.4803C5.39789 9.66232 6.25078 7.96776 7.10367 6.39665C7.979 4.82554 8.80944 3.46765 9.595 2.32299C10.403 1.17832 11.0876 0.403986 11.6487 -1.44939e-05C11.9629 0.0224297 12.2996 0.157096 12.6587 0.403984C13.0402 0.650874 13.3881 0.953874 13.7023 1.31298C14.0166 1.64965 14.2747 2.00876 14.4767 2.39032C14.7011 2.77187 14.8133 3.11976 14.8133 3.43399C13.8033 4.24199 12.7709 5.28565 11.716 6.56498C10.6836 7.82187 9.696 9.21343 8.75333 10.7397C7.81067 12.2434 6.93533 13.8482 6.12733 15.554C5.34178 17.2373 4.67967 18.8982 4.141 20.5367C4.85922 19.3022 5.61111 18.18 6.39667 17.17C7.18222 16.16 7.96778 15.2959 8.75333 14.5777C9.53889 13.8594 10.302 13.3095 11.0427 12.928C11.8058 12.524 12.524 12.3108 13.1973 12.2883C14.1849 13.0065 14.6787 13.9604 14.6787 15.15C14.6787 15.8682 14.5328 16.5977 14.241 17.3383C13.9492 18.0565 13.5564 18.7299 13.0627 19.3583C12.5913 19.9643 12.0414 20.4918 11.413 20.9407C10.807 21.3671 10.1673 21.6477 9.494 21.7823C9.71844 22.5679 9.999 23.3647 10.3357 24.1727C10.6948 24.9807 11.11 25.7662 11.5813 26.5293C12.0751 27.2924 12.625 27.9994 13.231 28.6503C13.8594 29.3012 14.5664 29.8511 15.352 30.3C15.2398 30.5244 15.0714 30.7489 14.847 30.9733C14.6226 31.1978 14.3532 31.3885 14.039 31.5457C13.7248 31.7252 13.3769 31.8599 12.9953 31.9497C12.6362 32.0619 12.2771 32.118 11.918 32.118C11.312 32.118 10.7397 31.815 10.201 31.209C9.68478 30.603 9.21344 29.7277 8.787 28.583C8.45033 27.6628 8.12489 26.563 7.81067 25.2837C7.49644 24.0043 7.21589 22.6689 6.969 21.2773C7.28322 21.0753 7.676 20.7835 8.14733 20.402C8.61867 19.998 9.11244 19.5379 9.62867 19.0217C11.6038 17.1139 12.5913 15.4642 12.5913 14.0727C12.5913 13.8931 12.4679 13.8033 12.221 13.8033C11.7721 13.8258 11.2447 14.039 10.6387 14.443C10.0327 14.847 9.38178 15.4081 8.686 16.1263C8.01267 16.8445 7.31689 17.6862 6.59867 18.6513C5.90289 19.6164 5.22955 20.6601 4.57867 21.7823C4.30933 22.2312 4.06244 22.7474 3.838 23.331C3.61356 23.9145 3.41156 24.5205 3.232 25.149C3.07489 25.755 2.95144 26.361 2.86167 26.967C2.77189 27.573 2.727 28.1341 2.727 28.6503C2.727 28.9645 2.76067 29.2227 2.828 29.4247C2.13222 29.3573 1.70578 29.1778 1.54867 28.886C1.36911 28.6167 1.212 28.3922 1.07733 28.2127C0.965111 28.0555 0.841666 27.9209 0.707 27.8087C0.505 27.6515 0.336666 27.3149 0.202 26.7987C0.0673331 26.2824 -2.02099e-07 25.6315 -2.02099e-07 24.846ZM16.701 25.755C16.701 25.553 16.7123 25.3061 16.7347 25.0143C16.7796 24.7001 16.8469 24.2961 16.9367 23.8023C17.0265 23.2861 17.1387 22.6689 17.2734 21.9507C17.4305 21.2324 17.6213 20.3683 17.8457 19.3583C17.8906 19.1339 17.9916 18.7748 18.1487 18.281C18.3058 17.7872 18.5078 17.271 18.7547 16.7323C19.024 16.1712 19.3383 15.6325 19.6974 15.1163C20.0789 14.6001 20.5278 14.2185 21.044 13.9717C21.4256 14.0614 21.9306 14.2971 22.559 14.6787C23.1875 15.0378 23.7261 15.5428 24.175 16.1937C23.6588 16.7772 23.2211 17.3608 22.862 17.9443C22.5254 18.5279 22.2111 19.1339 21.9194 19.7623C21.65 20.3908 21.3919 21.0417 21.145 21.715C20.9206 22.3883 20.6625 23.0953 20.3707 23.836C20.1238 24.4644 19.8994 25.1153 19.6974 25.7887C19.4954 26.4395 19.3831 27.0119 19.3607 27.5057C19.3607 27.9097 19.3495 28.1902 19.327 28.3473C19.327 28.5269 19.2709 28.6167 19.1587 28.6167C19.0689 28.6167 18.8894 28.5605 18.62 28.4483C18.3507 28.3361 18.0701 28.1678 17.7784 27.9433C17.509 27.6964 17.2621 27.3934 17.0377 27.0343C16.8133 26.6752 16.701 26.2488 16.701 25.755ZM23.1314 11.1437C23.1314 11.009 23.165 10.807 23.2324 10.5377C23.1201 10.4254 23.0191 10.2571 22.9294 10.0327C22.862 9.80821 22.8284 9.60621 22.8284 9.42665C22.8284 9.22465 22.8508 8.95532 22.8957 8.61865C22.963 8.25954 23.0416 7.87799 23.1314 7.47399C23.2211 7.06998 23.3334 6.65476 23.468 6.22832C23.6027 5.77943 23.7374 5.37543 23.872 5.01632C24.1414 5.01632 24.4668 5.09487 24.8484 5.25198C25.2524 5.38665 25.6564 5.57743 26.0604 5.82432C26.4644 6.04876 26.8347 6.30687 27.1714 6.59865C27.508 6.86798 27.7661 7.1261 27.9457 7.37298C27.6988 7.61987 27.3734 7.96776 26.9694 8.41665C26.5654 8.8431 26.1726 9.30321 25.791 9.79699C25.4095 10.2683 25.0616 10.7172 24.7474 11.1437C24.4331 11.5701 24.2311 11.8731 24.1414 12.0527C23.872 12.0078 23.6364 11.8955 23.4344 11.716C23.2324 11.514 23.1314 11.3232 23.1314 11.1437ZM30.0777 11.6823C30.6613 11.8619 31.2112 12.2659 31.7274 12.8943C32.2436 13.5003 32.6252 14.1737 32.8721 14.9143C32.6252 15.5203 32.2436 16.2498 31.7274 17.1027C31.2112 17.9555 30.695 18.8309 30.1787 19.7287C29.6625 20.604 29.1912 21.4457 28.7647 22.2537C28.3607 23.0392 28.1251 23.6901 28.0577 24.2063C28.4169 23.8248 28.8096 23.3871 29.2361 22.8933C29.685 22.3771 30.1114 21.8721 30.5154 21.3783C30.9419 20.8621 31.3346 20.402 31.6937 19.998C32.0529 19.5715 32.3334 19.2573 32.5354 19.0553C32.9619 18.6064 33.4669 18.0902 34.0504 17.5067C34.634 16.9007 35.24 16.3395 35.8684 15.8233C36.5193 15.2847 37.1702 14.8358 37.8211 14.4767C38.472 14.0951 39.0667 13.9043 39.6054 13.9043C40.189 13.9043 40.6715 14.1063 41.0531 14.5103C41.4571 14.8919 41.7713 15.2959 41.9957 15.7223C41.9957 15.7672 41.906 15.8345 41.7264 15.9243C41.5693 15.9917 41.3336 16.2049 41.0194 16.564C40.7052 16.968 40.3461 17.5291 39.9421 18.2473C39.5605 18.9431 39.179 19.7062 38.7974 20.5367C38.4383 21.3447 38.1353 22.1751 37.8884 23.028C37.6415 23.8809 37.5181 24.6552 37.5181 25.351C37.5181 25.9121 37.5854 26.2712 37.7201 26.4283C37.8772 26.5854 38.0904 26.664 38.3597 26.664C38.6066 26.664 38.8647 26.6079 39.1341 26.4957C39.4034 26.3834 39.6166 26.3273 39.7737 26.3273C39.8635 26.3722 39.9309 26.4732 39.9757 26.6303C40.0431 26.765 40.0767 26.8884 40.0767 27.0007C39.8972 27.1578 39.684 27.3149 39.4371 27.472C39.1902 27.6291 38.9321 27.775 38.6627 27.9097C38.3934 28.0443 38.1241 28.1565 37.8547 28.2463C37.6079 28.3361 37.3834 28.381 37.1814 28.381C36.5305 28.381 35.9919 28.28 35.5654 28.078C35.1614 27.8984 34.836 27.6515 34.5891 27.3373C34.3646 27.0231 34.2075 26.6528 34.1177 26.2263C34.028 25.7774 33.9831 25.3061 33.9831 24.8123C33.9831 24.543 34.0055 24.24 34.0504 23.9033C34.0953 23.5667 34.1851 23.1739 34.3197 22.725C34.4544 22.2537 34.6452 21.7038 34.8921 21.0753C35.139 20.4244 35.4532 19.6501 35.8347 18.7523C35.7899 18.7523 35.4869 18.9094 34.9257 19.2237C34.3646 19.5379 33.7586 20.0204 33.1077 20.6713C32.0529 21.6813 31.099 22.6801 30.2461 23.6677C29.4156 24.6552 28.5627 25.755 27.6874 26.967C27.1936 27.6628 26.756 28.2463 26.3744 28.7177C26.0153 29.2114 25.7011 29.5369 25.4317 29.694C24.9604 29.4247 24.6125 29.0431 24.3881 28.5493C24.1636 28.078 23.9953 27.5842 23.8831 27.068C23.8831 26.6415 23.9392 26.1029 24.0514 25.452C24.1861 24.8011 24.3544 24.0829 24.5564 23.2973C24.7809 22.4893 25.0502 21.6477 25.3644 20.7723C25.6786 19.897 26.0265 19.0217 26.4081 18.1463C27.261 16.1712 28.0353 14.6225 28.7311 13.5003C29.4493 12.3781 29.8982 11.7721 30.0777 11.6823ZM48.2591 11.6823C48.8426 11.8619 49.3925 12.2659 49.9087 12.8943C50.425 13.5003 50.8065 14.1737 51.0534 14.9143C50.8065 15.5203 50.425 16.2498 49.9087 17.1027C49.3925 17.9555 48.8763 18.8309 48.3601 19.7287C47.8438 20.604 47.3725 21.4457 46.9461 22.2537C46.5421 23.0392 46.3064 23.6901 46.2391 24.2063C46.5982 23.8248 46.9909 23.3871 47.4174 22.8933C47.8663 22.3771 48.2927 21.8721 48.6967 21.3783C49.1232 20.8621 49.5159 20.402 49.8751 19.998C50.2342 19.5715 50.5147 19.2573 50.7167 19.0553C51.1432 18.6064 51.6482 18.0902 52.2317 17.5067C52.8153 16.9007 53.4213 16.3395 54.0497 15.8233C54.7006 15.2847 55.3515 14.8358 56.0024 14.4767C56.6533 14.0951 57.2481 13.9043 57.7867 13.9043C58.3703 13.9043 58.8528 14.1063 59.2344 14.5103C59.6384 14.8919 59.9526 15.2959 60.1771 15.7223C60.1771 15.7672 60.0873 15.8345 59.9077 15.9243C59.7506 15.9917 59.515 16.2049 59.2007 16.564C58.8865 16.968 58.5274 17.5291 58.1234 18.2473C57.7418 18.9431 57.3603 19.7062 56.9787 20.5367C56.6196 21.3447 56.3166 22.1751 56.0697 23.028C55.8228 23.8809 55.6994 24.6552 55.6994 25.351C55.6994 25.9121 55.7667 26.2712 55.9014 26.4283C56.0585 26.5854 56.2717 26.664 56.5411 26.664C56.7879 26.664 57.0461 26.6079 57.3154 26.4957C57.5847 26.3834 57.7979 26.3273 57.9551 26.3273C58.0448 26.3722 58.1122 26.4732 58.1571 26.6303C58.2244 26.765 58.2581 26.8884 58.2581 27.0007C58.0785 27.1578 57.8653 27.3149 57.6184 27.472C57.3715 27.6291 57.1134 27.775 56.8441 27.9097C56.5747 28.0443 56.3054 28.1565 56.0361 28.2463C55.7892 28.3361 55.5647 28.381 55.3627 28.381C54.7118 28.381 54.1732 28.28 53.7467 28.078C53.3427 27.8984 53.0173 27.6515 52.7704 27.3373C52.5459 27.0231 52.3888 26.6528 52.2991 26.2263C52.2093 25.7774 52.1644 25.3061 52.1644 24.8123C52.1644 24.543 52.1868 24.24 52.2317 23.9033C52.2766 23.5667 52.3664 23.1739 52.5011 22.725C52.6357 22.2537 52.8265 21.7038 53.0734 21.0753C53.3203 20.4244 53.6345 19.6501 54.0161 18.7523C53.9712 18.7523 53.6682 18.9094 53.1071 19.2237C52.5459 19.5379 51.9399 20.0204 51.2891 20.6713C50.2342 21.6813 49.2803 22.6801 48.4274 23.6677C47.5969 24.6552 46.7441 25.755 45.8687 26.967C45.3749 27.6628 44.9373 28.2463 44.5557 28.7177C44.1966 29.2114 43.8824 29.5369 43.6131 29.694C43.1417 29.4247 42.7938 29.0431 42.5694 28.5493C42.3449 28.078 42.1766 27.5842 42.0644 27.068C42.0644 26.6415 42.1205 26.1029 42.2327 25.452C42.3674 24.8011 42.5357 24.0829 42.7377 23.2973C42.9622 22.4893 43.2315 21.6477 43.5457 20.7723C43.8599 19.897 44.2078 19.0217 44.5894 18.1463C45.4423 16.1712 46.2166 14.6225 46.9124 13.5003C47.6306 12.3781 48.0795 11.7721 48.2591 11.6823ZM73.039 14.0727C72.9493 15.4642 72.7024 16.665 72.2984 17.675C71.8944 18.6625 71.3108 19.5379 70.5477 20.301C69.807 21.0417 68.898 21.715 67.8207 22.321C66.7434 22.927 65.4865 23.5105 64.05 24.0717C64.05 24.2063 64.0388 24.3522 64.0164 24.5093C64.0164 24.644 64.0164 24.7899 64.0164 24.947C64.0164 25.2388 64.0388 25.5418 64.0837 25.856C64.1286 26.1702 64.2072 26.462 64.3194 26.7313C64.4316 27.0007 64.5887 27.2251 64.7907 27.4047C64.9927 27.5618 65.2508 27.6403 65.565 27.6403C66.171 27.6403 66.7658 27.5057 67.3494 27.2363C67.9329 26.967 68.4828 26.6415 68.999 26.26C69.5377 25.856 70.0315 25.4295 70.4804 24.9807C70.9517 24.5093 71.3669 24.0829 71.726 23.7013C71.9505 23.9033 72.1413 24.0941 72.2984 24.2737C71.2884 25.6203 70.1774 26.7425 68.9654 27.6403C67.7758 28.5157 66.6424 29.0768 65.565 29.3237C64.0164 29.1441 62.8044 28.583 61.929 27.6403C61.0762 26.6752 60.6497 25.5193 60.6497 24.1727C60.6497 23.2524 60.7732 22.321 61.02 21.3783C61.2894 20.4132 61.6485 19.493 62.0974 18.6177C62.5687 17.7199 63.1074 16.8782 63.7134 16.0927C64.3418 15.3071 65.0039 14.6225 65.6997 14.039C66.4179 13.4554 67.1474 12.9953 67.888 12.6587C68.6512 12.322 69.403 12.1537 70.1437 12.1537C71.1762 12.2883 72.1413 12.928 73.039 14.0727ZM70.716 15.1837C70.11 15.2734 69.4816 15.5203 68.8307 15.9243C68.1798 16.3283 67.5626 16.867 66.979 17.5403C66.4179 18.2137 65.9017 18.9992 65.4304 19.897C64.959 20.7948 64.5887 21.7599 64.3194 22.7923C66.1149 21.8945 67.6075 20.7948 68.797 19.493C69.9866 18.1688 70.6263 16.7323 70.716 15.1837ZM74.7997 22.0853C74.7997 20.806 75.0578 19.5715 75.574 18.382C76.1127 17.17 76.8085 16.1039 77.6614 15.1837C78.5367 14.241 79.5243 13.4891 80.624 12.928C81.7463 12.3444 82.9021 12.0527 84.0917 12.0527C85.2588 12.0527 86.1566 12.3444 86.785 12.928C87.4135 13.5115 87.7277 14.342 87.7277 15.4193C87.7277 15.9355 87.6491 16.4405 87.492 16.9343C87.3574 17.4057 87.1666 17.8321 86.9197 18.2137C86.6953 18.5952 86.4259 18.9094 86.1117 19.1563C85.7975 19.3808 85.4833 19.493 85.169 19.493C84.8997 19.493 84.6191 19.4144 84.3274 19.2573C84.058 19.0778 83.8336 18.8533 83.654 18.584C85.1578 17.2149 85.9097 15.9692 85.9097 14.847C85.9097 14.1961 85.6516 13.8707 85.1354 13.8707C84.6865 13.8707 84.1254 14.0839 83.452 14.5103C82.7787 14.9368 82.1278 15.4979 81.4994 16.1937C80.5343 17.271 79.7936 18.4718 79.2774 19.796C78.7836 21.0978 78.5367 22.4669 78.5367 23.9033C78.5367 25.7213 78.9407 26.8099 79.7487 27.169C80.0854 27.1241 80.4781 27.0231 80.927 26.866C81.3759 26.7089 81.8585 26.5069 82.3747 26.26C82.8909 25.9907 83.4184 25.6877 83.957 25.351C84.5181 25.0143 85.0568 24.6552 85.573 24.2737C85.6628 24.341 85.7414 24.442 85.8087 24.5767C85.876 24.7113 85.9097 24.8348 85.9097 24.947C85.5281 25.4183 85.0905 25.8784 84.5967 26.3273C84.1029 26.7762 83.5867 27.1914 83.048 27.573C82.5094 27.9321 81.9819 28.2351 81.4657 28.482C80.9719 28.7513 80.5343 28.9197 80.1527 28.987C79.412 28.9197 78.7163 28.684 78.0654 28.28C77.4145 27.8984 76.8421 27.3934 76.3484 26.765C75.877 26.1365 75.4955 25.4183 75.2037 24.6103C74.9344 23.8023 74.7997 22.9607 74.7997 22.0853ZM90.5899 15.1163C90.4777 14.9817 90.3767 14.7011 90.2869 14.2747C90.1971 13.8258 90.1522 13.4442 90.1522 13.13C90.7358 13.1749 91.2969 13.2198 91.8356 13.2647C92.3742 13.2871 92.868 13.3095 93.3169 13.332C93.6536 12.6587 94.0127 11.9965 94.3942 11.3457C94.7982 10.6723 95.1798 10.0663 95.5389 9.52765C95.9204 8.96654 96.2683 8.49521 96.5826 8.11365C96.9192 7.7321 97.1773 7.48521 97.3569 7.37298C97.5813 7.37298 97.8619 7.41787 98.1986 7.50765C98.5577 7.57499 98.9168 7.67599 99.2759 7.81065C99.635 7.92287 99.9604 8.04632 100.252 8.18098C100.544 8.31565 100.746 8.45032 100.858 8.58498C100.185 9.43787 99.6013 10.2347 99.1076 10.9753C98.6362 11.6935 98.12 12.524 97.5589 13.4667C98.0078 13.4667 98.4567 13.4554 98.9056 13.433C99.3769 13.4105 99.8482 13.3769 100.32 13.332C100.432 13.4442 100.522 13.5901 100.589 13.7697C100.656 13.9268 100.69 14.0951 100.69 14.2747C99.5901 14.6787 98.2547 14.9031 96.6836 14.948C96.1224 16.0253 95.6174 17.1027 95.1686 18.18C94.7421 19.2349 94.3718 20.2561 94.0576 21.2437C93.7658 22.2312 93.5301 23.1627 93.3506 24.038C93.1934 24.9133 93.1149 25.6989 93.1149 26.3947C93.1149 27.3822 93.4852 27.9321 94.2259 28.0443C94.8992 27.9545 95.5389 27.7862 96.1449 27.5393C96.7509 27.2924 97.2896 26.9782 97.7609 26.5967C97.8956 26.7987 97.9741 26.967 97.9966 27.1017C97.8619 27.3037 97.6262 27.5393 97.2896 27.8087C96.9753 28.078 96.6274 28.3361 96.2459 28.583C95.8643 28.8523 95.494 29.0768 95.1349 29.2563C94.7758 29.4359 94.5064 29.5369 94.3269 29.5593C93.7658 29.5369 93.2047 29.4134 92.6436 29.189C92.0824 28.9645 91.5662 28.684 91.0949 28.3473C90.646 28.0107 90.2757 27.6403 89.9839 27.2363C89.6921 26.8099 89.5462 26.3947 89.5462 25.9907C89.5462 25.452 89.6136 24.7787 89.7482 23.9707C89.9053 23.1402 90.1186 22.2424 90.3879 21.2773C90.6572 20.3122 90.9714 19.3022 91.3306 18.2473C91.6897 17.1924 92.0824 16.1488 92.5089 15.1163H90.5899Z" fill="white"/>
</svg>
