<svg width="311" height="209" viewBox="0 0 311 209" fill="none" xmlns="http://www.w3.org/2000/svg">
<path d="M177.296 41.1349L146.132 23.8135C145.123 23.2527 143.932 23.1155 142.822 23.4318C141.711 23.7481 140.772 24.4922 140.21 25.5003L130.436 43.0394C129.874 44.0475 129.736 45.2371 130.052 46.3464C130.368 47.4558 131.112 48.394 132.121 48.9547L153.781 60.9936L153.956 69.7603L160.361 64.6512L163.301 66.2852C164.31 66.8459 165.501 66.9832 166.611 66.6669C167.722 66.3505 168.661 65.6064 169.223 64.5983L179.009 47.0375C179.565 46.0271 179.697 44.838 179.375 43.7313C179.054 42.6246 178.306 41.6908 177.296 41.1349Z" fill="#CE2FB5" stroke="#263238" stroke-linecap="round" stroke-linejoin="round"/>
<path d="M148.919 42.7159C149.149 42.3024 149.252 41.8301 149.213 41.3585C149.175 40.8869 148.998 40.4374 148.703 40.0667C148.409 39.696 148.012 39.4208 147.561 39.2759C147.11 39.131 146.627 39.1229 146.171 39.2527C145.716 39.3824 145.309 39.6442 145.002 40.0048C144.695 40.3655 144.502 40.8088 144.448 41.2788C144.393 41.7488 144.48 42.2244 144.696 42.6453C144.912 43.0662 145.248 43.4136 145.662 43.6436C146.216 43.952 146.871 44.0275 147.482 43.8535C148.093 43.6796 148.61 43.2703 148.919 42.7159Z" fill="white"/>
<path d="M157.294 47.3721C157.524 46.9587 157.627 46.4863 157.589 46.0148C157.55 45.5432 157.373 45.0936 157.079 44.7229C156.785 44.3523 156.387 44.0771 155.936 43.9322C155.486 43.7873 155.002 43.7792 154.546 43.9089C154.091 44.0387 153.684 44.3004 153.377 44.6611C153.071 45.0217 152.878 45.4651 152.823 45.9351C152.769 46.4051 152.855 46.8806 153.071 47.3016C153.287 47.7225 153.623 48.0699 154.037 48.2999C154.592 48.6083 155.247 48.6838 155.857 48.5098C156.468 48.3358 156.985 47.9266 157.294 47.3721Z" fill="white"/>
<path d="M165.685 52.0372C165.916 51.6237 166.018 51.1513 165.98 50.6798C165.942 50.2082 165.764 49.7587 165.47 49.388C165.176 49.0173 164.779 48.7421 164.328 48.5972C163.877 48.4523 163.393 48.4442 162.938 48.574C162.482 48.7037 162.076 48.9655 161.769 49.3261C161.462 49.6868 161.269 50.1301 161.215 50.6001C161.16 51.0701 161.246 51.5457 161.462 51.9666C161.678 52.3875 162.015 52.7349 162.428 52.9649C162.983 53.2733 163.638 53.3488 164.249 53.1748C164.86 53.0008 165.376 52.5916 165.685 52.0372Z" fill="white"/>
<path d="M291.145 76.7569L191.609 70.2231C189.018 70.0529 186.779 72.0134 186.609 74.6019L180.387 169.169C180.216 171.758 182.179 173.994 184.77 174.164L284.306 180.698C286.897 180.868 289.136 178.908 289.306 176.319L295.528 81.7518C295.699 79.1633 293.736 76.927 291.145 76.7569Z" fill="#263238" stroke="#263238" stroke-linecap="round" stroke-linejoin="round"/>
<path d="M288.503 72.3687L188.967 65.8349C186.376 65.6648 184.137 67.6252 183.967 70.2137L177.745 164.781C177.575 167.37 179.537 169.606 182.129 169.776L281.664 176.31C284.256 176.48 286.494 174.52 286.665 171.931L292.887 77.3636C293.057 74.7751 291.094 72.5389 288.503 72.3687Z" fill="white" stroke="#263238" stroke-linecap="round" stroke-linejoin="round"/>
<path d="M292.62 81.2627L292.875 77.3796C292.95 76.1405 292.531 74.922 291.709 73.9907C290.887 73.0593 289.73 72.4908 288.49 72.4093L188.97 65.8671C187.73 65.7938 186.511 66.2131 185.579 67.0335C184.647 67.8539 184.077 69.0091 183.994 70.2472L183.739 74.124L292.62 81.2627Z" fill="white" stroke="#263238" stroke-linecap="round" stroke-linejoin="round"/>
<path d="M274.849 76.3668C274.868 76.0846 274.803 75.803 274.662 75.5578C274.521 75.3126 274.31 75.1147 274.056 74.9893C273.802 74.864 273.517 74.8167 273.236 74.8534C272.955 74.8902 272.692 75.0094 272.479 75.196C272.266 75.3825 272.113 75.628 272.04 75.9013C271.967 76.1746 271.976 76.4634 272.068 76.7312C272.159 76.9989 272.328 77.2336 272.553 77.4054C272.778 77.5773 273.049 77.6785 273.332 77.6964C273.519 77.709 273.707 77.6847 273.884 77.6246C274.062 77.5646 274.226 77.4701 274.367 77.3465C274.508 77.223 274.623 77.0729 274.706 76.9047C274.789 76.7366 274.837 76.5538 274.849 76.3668Z" fill="white" stroke="#263238" stroke-linecap="round" stroke-linejoin="round"/>
<path d="M280.286 76.7211C280.303 76.4393 280.237 76.1585 280.095 75.9143C279.954 75.67 279.743 75.4732 279.489 75.3486C279.235 75.2241 278.95 75.1774 278.67 75.2145C278.39 75.2516 278.127 75.3708 277.914 75.5571C277.702 75.7433 277.549 75.9883 277.476 76.261C277.403 76.5337 277.412 76.822 277.503 77.0894C277.594 77.3569 277.761 77.5915 277.986 77.7637C278.21 77.9359 278.48 78.0379 278.762 78.0568C279.141 78.0807 279.514 77.9536 279.8 77.7032C280.085 77.4529 280.26 77.0998 280.286 76.7211Z" fill="white" stroke="#263238" stroke-linecap="round" stroke-linejoin="round"/>
<path d="M285.716 77.0814C285.736 76.7978 285.672 76.5145 285.531 76.2675C285.389 76.0205 285.178 75.8209 284.923 75.6941C284.668 75.5673 284.382 75.5189 284.099 75.5552C283.817 75.5914 283.552 75.7107 283.337 75.8977C283.123 76.0848 282.969 76.3313 282.895 76.6059C282.821 76.8805 282.83 77.1709 282.922 77.4401C283.014 77.7094 283.183 77.9454 283.409 78.1183C283.635 78.2911 283.908 78.393 284.192 78.4109C284.57 78.4349 284.942 78.3086 285.228 78.0595C285.513 77.8105 285.689 77.459 285.716 77.0814Z" fill="white" stroke="#263238" stroke-linecap="round" stroke-linejoin="round"/>
<path d="M233.872 48.6078L232.734 48.9246C228.971 50.0305 217.09 54.0006 215.598 60.5552C213.819 68.3648 221.5 74.9877 221.5 74.9877C221.5 74.9877 224.729 86.1709 223.161 90.7685C221.594 95.366 214.503 96.3228 215.43 104.126C216.356 111.93 224.013 118.919 244.894 119.391C265.774 119.863 271.752 119.348 274.078 104.909C275.944 93.2661 266.11 84.7668 263.958 76.3297C261.806 67.8926 265.395 62.7359 257.502 53.9322C249.609 45.1285 233.872 48.6078 233.872 48.6078Z" fill="#263238" stroke="#263238" stroke-linecap="round" stroke-linejoin="round"/>
<path d="M232.435 59.7661C232.435 59.7661 222.427 64.2146 222.147 65.8983C221.867 67.582 217.681 79.3865 218.614 85.9162C219.547 92.446 229.188 93.2474 229.188 93.2474C229.188 93.2474 228.896 97.6524 223.926 100.703C218.956 103.753 208.992 108.084 208.992 108.084C208.992 108.084 217.893 115.738 236.833 115.285C255.773 114.831 254.97 110.936 254.97 110.936C251.387 108.544 248.084 105.758 245.124 102.629C240.832 97.9257 239.402 91.191 240.148 88.01C240.894 84.8289 240.664 82.7663 237.909 75.4413C235.153 68.1163 232.435 59.7661 232.435 59.7661Z" fill="white" stroke="#263238" stroke-linecap="round" stroke-linejoin="round"/>
<path d="M228.019 69.8311C228.022 71.5287 227.433 73.1744 226.352 74.4845C224.486 76.9138 221.898 77.4294 222.869 78.175C223.839 78.9205 226.719 79.2747 226.719 79.2747" stroke="#263238" stroke-linecap="round" stroke-linejoin="round"/>
<path d="M224.194 81.3436C224.194 81.3436 227.615 83.7853 231.931 80.3247" stroke="#263238" stroke-linecap="round" stroke-linejoin="round"/>
<path d="M222.62 69.2407C222.62 69.2407 224.573 66.3517 227.329 68.4206" stroke="#263238" stroke-linecap="round" stroke-linejoin="round"/>
<path d="M230.955 68.7809C230.955 68.7809 234.009 68.228 235.732 70.7318" stroke="#263238" stroke-linecap="round" stroke-linejoin="round"/>
<path d="M225.232 71.5456C225.183 72.3098 224.809 72.9 224.393 72.8751C223.976 72.8503 223.684 72.2103 223.733 71.4524C223.783 70.6944 224.156 70.098 224.573 70.1228C224.99 70.1477 225.282 70.7876 225.232 71.5456Z" fill="#263238"/>
<path d="M233.68 72.964C233.73 72.2039 233.435 71.5656 233.02 71.5384C232.605 71.5112 232.228 72.1053 232.178 72.8654C232.128 73.6255 232.424 74.2638 232.839 74.291C233.254 74.3182 233.63 73.7241 233.68 72.964Z" fill="#263238"/>
<path d="M229.207 93.2476L235.265 93.0674C235.265 93.0674 235.072 94.0615 232.329 95.6395C230.771 96.5436 229.164 97.3608 227.515 98.0874C227.515 98.0874 229.051 95.4469 229.207 93.2476Z" fill="#263238" stroke="#263238" stroke-miterlimit="10"/>
<path d="M191.557 170.275L204.538 117.397L218.571 122.467L208.14 171.455L191.557 170.275Z" fill="white" stroke="#263238" stroke-linecap="round" stroke-linejoin="round"/>
<path d="M204.538 117.397L197.13 146.871C199.618 148.418 204.439 150.599 212.382 150.779H212.724L218.552 122.485L204.538 117.397Z" fill="#862977" stroke="#263238" stroke-linecap="round" stroke-linejoin="round"/>
<path d="M204.887 171.151L209.689 146.952C207.988 144.087 206.622 141.037 205.615 137.862C204.196 133.103 208.333 120.236 208.333 120.236C215.792 122.305 223.375 123.901 231.036 125.014C243.892 126.878 256.401 123.566 256.401 123.566L248.141 151.723L250.815 174.307L204.887 171.151Z" fill="#862977" stroke="#263238" stroke-linecap="round" stroke-linejoin="round"/>
<path d="M260.021 174.854L254.255 153.513L269.233 149.48L273.761 175.73L260.021 174.854Z" fill="white" stroke="#263238" stroke-linecap="round" stroke-linejoin="round"/>
<path d="M248.24 131.848L254.255 153.513C254.255 153.513 254.833 155.277 260.475 153.749C263.659 152.948 266.641 151.494 269.233 149.48L260.618 120.211C259.61 119.578 258.486 119.152 257.311 118.957C256.137 118.761 254.935 118.801 253.776 119.074C249.901 120.031 248.8 121.336 248.8 121.336" fill="#862977"/>
<path d="M248.24 131.848L254.255 153.513C254.255 153.513 254.833 155.277 260.475 153.749C263.659 152.948 266.641 151.494 269.233 149.48L260.618 120.211C259.61 119.578 258.486 119.152 257.311 118.957C256.137 118.761 254.935 118.801 253.776 119.074C249.901 120.031 248.8 121.336 248.8 121.336" stroke="#263238" stroke-linecap="round" stroke-linejoin="round"/>
<path d="M207.369 105.996C207.369 105.996 216.699 111.109 231.627 113.122C246.555 115.135 256.967 109.432 257.844 109.314C258.721 109.196 265.718 121.398 265.718 121.398C265.718 121.398 248.134 128.232 232.628 127.362C216.17 126.468 199.426 118.956 199.426 118.956L207.369 105.996Z" fill="#862977" stroke="#263238" stroke-linecap="round" stroke-linejoin="round"/>
<path d="M118.265 70.5302L19.6079 85.2402C17.0393 85.6231 15.2679 88.0134 15.6513 90.5791L29.6591 184.312C30.0425 186.878 32.4355 188.647 35.0041 188.264L133.661 173.554C136.23 173.171 138.001 170.781 137.618 168.215L123.61 74.4822C123.226 71.9166 120.833 70.1472 118.265 70.5302Z" fill="#263238" stroke="#263238" stroke-linecap="round" stroke-linejoin="round"/>
<path d="M120.901 67.0116L22.2438 81.7216C19.6753 82.1046 17.9039 84.4949 18.2873 87.0605L32.295 180.793C32.6785 183.359 35.0715 185.129 37.6401 184.746L136.297 170.036C138.866 169.653 140.637 167.262 140.254 164.697L126.246 70.9637C125.862 68.398 123.469 66.6286 120.901 67.0116Z" fill="white" stroke="#263238" stroke-linecap="round" stroke-linejoin="round"/>
<path d="M126.826 74.8015L126.247 70.9557C126.063 69.7242 125.397 68.6162 124.395 67.8752C123.393 67.1342 122.137 66.821 120.904 67.0043L22.2427 81.7227C21.0098 81.9068 19.9005 82.5723 19.1587 83.5731C18.4169 84.5739 18.1033 85.8279 18.2868 87.0596L18.8653 90.9053L126.826 74.8015Z" fill="white" stroke="#263238" stroke-linecap="round" stroke-linejoin="round"/>
<path d="M108.421 73.7948C108.38 73.5152 108.256 73.254 108.067 73.0443C107.877 72.8347 107.629 72.686 107.355 72.617C107.08 72.548 106.792 72.5618 106.525 72.6567C106.258 72.7516 106.026 72.9234 105.857 73.1502C105.688 73.3771 105.591 73.6488 105.577 73.9311C105.562 74.2134 105.632 74.4936 105.778 74.7362C105.923 74.9787 106.137 75.1728 106.393 75.2939C106.648 75.415 106.934 75.4576 107.214 75.4164C107.589 75.3611 107.927 75.1592 108.154 74.8551C108.38 74.5511 108.476 74.1697 108.421 73.7948Z" fill="white" stroke="#263238" stroke-linecap="round" stroke-linejoin="round"/>
<path d="M113.826 72.9869C113.786 72.707 113.664 72.4452 113.475 72.2343C113.287 72.0235 113.04 71.873 112.766 71.8017C112.492 71.7304 112.203 71.7416 111.935 71.8337C111.668 71.9259 111.433 72.095 111.262 72.3197C111.09 72.5445 110.988 72.8149 110.97 73.097C110.952 73.3792 111.017 73.6605 111.158 73.9056C111.299 74.1508 111.509 74.3489 111.763 74.475C112.016 74.6011 112.301 74.6497 112.582 74.6146C112.772 74.5918 112.955 74.5312 113.121 74.4365C113.287 74.3417 113.432 74.2147 113.548 74.063C113.664 73.9113 113.748 73.7379 113.796 73.553C113.844 73.3682 113.854 73.1757 113.826 72.9869Z" fill="white" stroke="#263238" stroke-linecap="round" stroke-linejoin="round"/>
<path d="M119.188 72.1858C119.145 71.9064 119.021 71.6459 118.83 71.4372C118.639 71.2285 118.391 71.081 118.116 71.0133C117.841 70.9456 117.553 70.9607 117.287 71.0568C117.021 71.1529 116.789 71.3256 116.621 71.5531C116.454 71.7806 116.357 72.0527 116.344 72.335C116.331 72.6173 116.402 72.8971 116.548 73.139C116.695 73.3809 116.909 73.5741 117.165 73.6942C117.422 73.8142 117.707 73.8558 117.987 73.8136C118.173 73.7855 118.352 73.7211 118.512 73.6241C118.673 73.5271 118.814 73.3993 118.925 73.2482C119.037 73.097 119.117 72.9253 119.162 72.7431C119.207 72.5608 119.216 72.3714 119.188 72.1858Z" fill="white" stroke="#263238" stroke-linecap="round" stroke-linejoin="round"/>
<path d="M101.716 145.411L110.094 111.458C110.094 111.458 106.754 102.71 106.984 101.213C107.214 99.7152 108.551 96.5777 108.508 95.5712C108.464 94.5647 106.101 91.5328 107.314 90.5636C108.527 89.5944 109.696 90.6568 110.604 92.2162C111.512 93.7757 111.164 95.1736 111.12 96.4224C111.077 97.6711 111.12 98.7895 111.12 98.7895C111.12 98.7895 116.096 91.9553 117.962 90.0914C119.828 88.2275 121.732 85.1211 122.634 85.1211C123.535 85.1211 123.803 85.3945 123.529 86.5625C123.256 87.7305 120.177 91.3464 120.177 91.3464L118.18 95.2605C119.366 96.7029 120.427 98.243 121.352 99.8643C122.739 102.349 123.473 103.493 122.41 105.456C121.346 107.419 116.563 113.321 116.563 113.321C116.563 113.321 117.334 143.429 116.917 145.181C116.501 146.933 114.56 154.327 110.797 157.818C109.516 159.011 105.398 158.738 103.532 158.34C102.062 157.967 100.627 157.464 99.2463 156.837L97.144 148.803L101.716 145.411Z" fill="white" stroke="#263238" stroke-linecap="round" stroke-linejoin="round"/>
<path d="M118.18 95.2601C118.18 95.2601 112.694 99.3482 113.285 100.28C113.744 100.903 114.36 101.394 115.07 101.703C115.07 101.703 114.51 103.368 115.344 104.238C115.816 104.634 116.402 104.869 117.017 104.909C117.017 104.909 115.381 106.052 117.502 106.642C119.623 107.232 123.131 105.797 123.902 104.896C124.674 103.995 123.71 102.107 123.71 102.107C123.72 101.321 123.603 100.538 123.361 99.7894C123.107 99.115 122.745 98.4858 122.291 97.9255C122.291 97.9255 122.092 95.8131 121.047 95.0613C120.002 94.3096 118.18 95.2601 118.18 95.2601Z" fill="white" stroke="#263238" stroke-linecap="round" stroke-linejoin="round"/>
<path d="M115.051 101.703L122.273 97.9194" stroke="#263238" stroke-linecap="round" stroke-linejoin="round"/>
<path d="M116.998 104.909L123.691 102.107" stroke="#263238" stroke-linecap="round" stroke-linejoin="round"/>
<path d="M85.214 114.384C85.214 114.384 88.324 115.496 90.6316 119.665C92.9392 123.834 103.737 144.659 103.737 144.659L95.7133 149.126L84.8968 116.819L81.681 113.321C81.681 113.321 84.4614 113.818 85.214 114.384Z" fill="#862977" stroke="#263238" stroke-linecap="round" stroke-linejoin="round"/>
<path d="M46.395 117.875C46.395 117.875 36.0387 129.145 35.9641 132.165C35.8894 135.184 50.7677 182.657 50.7677 182.657L107.743 174.158C107.743 174.158 89.7484 120.075 86.458 115.806C83.1676 111.538 78.4529 110.836 72.2578 110.836C68.22 110.895 64.1926 111.259 60.2096 111.923C60.2096 111.923 50.5562 113.719 46.395 117.875Z" fill="#862977" stroke="#263238" stroke-linecap="round" stroke-linejoin="round"/>
<path d="M50.382 108.972C50.382 108.972 46.65 110.215 45.8725 111.942C45.095 113.669 45.207 120.528 45.207 120.528C45.207 120.528 52.671 128.965 56.3408 131.09C60.0106 133.215 62.9029 134.706 62.9029 134.706C62.9029 134.706 65.4531 123.361 65.8947 122.765C66.3363 122.168 78.571 125.828 78.571 125.828C78.571 125.828 77.806 121.876 72.7616 115.378C67.7171 108.879 54.8915 105.996 50.382 108.972Z" fill="#862977" stroke="#263238" stroke-linecap="round" stroke-linejoin="round"/>
<path d="M68.0095 76.2363C68.0095 76.2363 70.7276 85.4439 72.7305 89.0411C74.7333 92.6384 75.2185 98.5282 72.6434 102.324C70.0683 106.12 64.9492 107.108 64.9492 107.108C65.2878 108.931 65.7196 110.735 66.243 112.513C66.921 114.601 68.0717 115.769 68.5133 120.329C68.9549 124.89 68.5506 127.163 68.5506 127.163C68.5506 127.163 63.5186 123.653 59.0029 121.162C54.4872 118.67 50.8485 113.862 50.8485 113.862C50.8485 113.862 45.4122 101.162 43.3845 98.056C42.2262 96.3377 41.1871 94.5421 40.2745 92.6819C40.1003 92.3402 34.1665 89.3331 38.141 79.2434C42.1156 69.1536 55.358 68.8741 60.1847 70.3403C65.0114 71.8065 68.0095 76.2363 68.0095 76.2363Z" fill="white" stroke="#263238" stroke-linecap="round" stroke-linejoin="round"/>
<path d="M45.406 68.4082C45.406 68.4082 43.0922 65.9541 39.186 67.3955C35.2798 68.8369 31.6411 76.6652 34.9626 84.2076C38.2841 91.7501 42.2525 94.6825 42.2525 94.6825C42.2525 94.6825 47.2285 96.2482 49.138 94.2663C51.0475 92.2844 44.784 88.7057 46.5007 87.2333C48.2174 85.7608 54.7111 83.4496 52.3102 81.2565C49.9093 79.0633 46.028 79.8772 49.5547 76.6651C53.0815 73.4531 56.7948 73.7637 59.0713 75.1243C61.3479 76.485 65.4842 80.4985 71.642 76.0501C77.7998 71.6016 72.9668 66.9668 70.1118 65.8112C68.4578 65.121 66.6597 64.8458 64.8746 65.0097C64.8746 65.0097 59.4259 57.9146 53.3427 57.9705C47.2596 58.0265 45.1759 66.1032 45.406 68.4082Z" fill="#263238" stroke="#263238" stroke-linecap="round" stroke-linejoin="round"/>
<path d="M64.3894 80.5483C64.3894 80.5483 65.4468 85.9908 67.4186 87.7615C69.3903 89.5322 72.6185 90.7623 71.4491 91.9117C70.2798 93.0611 67.3564 93.8626 67.3564 93.8626" stroke="#263238" stroke-linecap="round" stroke-linejoin="round"/>
<path d="M68.42 97.8388C67.3016 98.5115 66.0119 98.846 64.7071 98.8019C63.4024 98.7578 62.1383 98.337 61.068 97.5903" stroke="#263238" stroke-linecap="round" stroke-linejoin="round"/>
<path d="M62.4239 98.3667C62.4239 98.3667 63.332 102.007 64.9119 101.896C66.4918 101.784 66.8712 98.6836 66.8712 98.6836C66.8712 98.6836 63.7612 99.1433 62.4239 98.3667Z" fill="#263238" stroke="#263238" stroke-linecap="round" stroke-linejoin="round"/>
<path d="M56.7513 84.8536C56.7513 84.8536 57.025 82.6169 59.8613 81.9521" stroke="#263238" stroke-linecap="round" stroke-linejoin="round"/>
<path d="M65.8014 80.2128C65.8014 80.2128 67.5679 78.9702 69.0607 79.9705" stroke="#263238" stroke-linecap="round" stroke-linejoin="round"/>
<path d="M61.5282 86.8171C61.8392 87.6558 61.7148 88.4821 61.2421 88.6809C60.7694 88.8798 60.1412 88.3082 59.8364 87.4384C59.5316 86.5686 59.656 85.7733 60.1225 85.5745C60.589 85.3757 61.2235 85.9845 61.5282 86.8171Z" fill="#263238"/>
<path d="M69.1913 83.636C69.5023 84.4809 69.3717 85.301 68.9052 85.4998C68.4387 85.6987 67.8042 85.1271 67.4932 84.2573C67.1822 83.3875 67.3128 82.5922 67.7856 82.3934C68.2583 82.1946 68.8803 82.791 69.1913 83.636Z" fill="#263238"/>
<path d="M48.4413 96.9252C48.4413 96.9252 42.9864 91.4082 40.8343 94.1605C38.6822 96.9128 43.0859 101.858 45.7481 102.56C48.4103 103.262 49.2126 100.46 49.2126 100.46" fill="white"/>
<path d="M48.4413 96.9252C48.4413 96.9252 42.9864 91.4082 40.8343 94.1605C38.6822 96.9128 43.0859 101.858 45.7481 102.56C48.4103 103.262 49.2126 100.46 49.2126 100.46" stroke="#263238" stroke-linecap="round" stroke-linejoin="round"/>
<path d="M64.9492 107.108C63.4981 107.677 61.9164 107.828 60.3838 107.543C57.7589 107.084 56.235 106.705 56.235 106.705C57.9209 108.065 59.7329 109.261 61.6464 110.277C64.0038 111.389 66.243 112.514 66.243 112.514L64.9492 107.108Z" fill="#263238" stroke="#263238" stroke-linecap="round" stroke-linejoin="round"/>
<path d="M117.695 137.999L93.7011 139.271C93.0185 139.308 92.4945 139.89 92.5307 140.572L94.3064 173.968C94.3427 174.65 94.9254 175.174 95.6081 175.138L119.602 173.865C120.285 173.829 120.809 173.246 120.773 172.565L118.997 139.168C118.961 138.486 118.378 137.962 117.695 137.999Z" fill="#263238" stroke="#263238" stroke-linecap="round" stroke-linejoin="round"/>
<path d="M44.2118 171.902C44.2118 171.902 48.1304 184.912 49.0882 185.08C50.0461 185.248 91.6704 170.43 91.6704 170.43C92.9655 170.17 94.2292 169.772 95.4397 169.243C96.9885 168.498 103.911 162.689 103.911 162.689C103.911 162.689 106.847 162.148 107.432 161.229C108.017 160.309 108.558 159.713 107.936 159.707C107.314 159.7 95.166 161.813 95.4646 161.782C95.7631 161.751 104.757 157.905 105.945 157.52C107.133 157.134 107.998 155.973 107.774 155.177C107.55 154.382 105.149 155.668 104.042 156.041C102.935 156.414 94.544 159.104 94.544 159.104C94.544 159.104 99.1841 155.407 100.646 154.755C102.108 154.102 104.962 152.344 105.273 151.648C105.343 151.493 105.369 151.322 105.349 151.153C105.328 150.985 105.262 150.825 105.156 150.691C105.051 150.557 104.912 150.455 104.753 150.395C104.593 150.335 104.421 150.319 104.253 150.35C103.557 150.561 93.81 155.538 93.0574 156.171C92.3048 156.805 87.1795 166.131 87.1795 166.131L59.9857 169.045L59.2828 167.802L44.2118 171.902Z" fill="white" stroke="#263238" stroke-linecap="round" stroke-linejoin="round"/>
<path d="M103.202 162.794L95.0851 165.46" stroke="#263238" stroke-linecap="round" stroke-linejoin="round"/>
<path d="M42.806 122.299C42.806 122.299 34.3468 127.269 33.8119 133.19C33.277 139.111 42.296 173.617 42.296 173.617L60.1661 167.591L51.825 138.794" fill="#862977"/>
<path d="M42.806 122.299C42.806 122.299 34.3468 127.269 33.8119 133.19C33.277 139.111 42.296 173.617 42.296 173.617L60.1661 167.591L51.825 138.794" stroke="#263238" stroke-linecap="round" stroke-linejoin="round"/>
</svg>
